HIERARCHY
ROOT Hips
{
	OFFSET 0.00000 0.00000 0.00000
	CHANNELS 6 Xposition Yposition Zposition Zrotation Yrotation Xrotation 
	JOINT LHipJoint
	{
		OFFSET 0 0 0
		CHANNELS 3 Zrotation Yrotation Xrotation
		JOINT LeftUpLeg
		{
			OFFSET 1.57338 -1.94743 0.52196
			CHANNELS 3 Zrotation Yrotation Xrotation
			JOINT LeftLeg
			{
				OFFSET 2.60333 -7.15259 0.00000
				CHANNELS 3 Zrotation Yrotation Xrotation
				JOINT LeftFoot
				{
					OFFSET 2.77855 -7.63400 0.00000
					CHANNELS 3 Zrotation Yrotation Xrotation
					JOINT LeftToeBase
					{
						OFFSET 0.19847 -0.54529 2.28466
						CHANNELS 3 Zrotation Yrotation Xrotation
						End Site
						{
							OFFSET 0.00000 -0.00000 1.17993
						}
					}
				}
			}
		}
	}
	JOINT RHipJoint
	{
		OFFSET 0 0 0
		CHANNELS 3 Zrotation Yrotation Xrotation
		JOINT RightUpLeg
		{
			OFFSET -1.61527 -1.94743 0.52196
			CHANNELS 3 Zrotation Yrotation Xrotation
			JOINT RightLeg
			{
				OFFSET -2.53829 -6.97390 0.00000
				CHANNELS 3 Zrotation Yrotation Xrotation
				JOINT RightFoot
				{
					OFFSET -2.80762 -7.71387 0.00000
					CHANNELS 3 Zrotation Yrotation Xrotation
					JOINT RightToeBase
					{
						OFFSET -0.30536 -0.83898 2.28801
						CHANNELS 3 Zrotation Yrotation Xrotation
						End Site
						{
							OFFSET -0.00000 -0.00000 1.21323
						}
					}
				}
			}
		}
	}
	JOINT LowerBack
	{
		OFFSET 0 0 0
		CHANNELS 3 Zrotation Yrotation Xrotation
		JOINT Spine
		{
			OFFSET -0.04381 1.99497 -0.19778
			CHANNELS 3 Zrotation Yrotation Xrotation
			JOINT Spine1
			{
				OFFSET -0.01959 2.01295 -0.04372
				CHANNELS 3 Zrotation Yrotation Xrotation
				JOINT Neck
				{
					OFFSET 0 0 0
					CHANNELS 3 Zrotation Yrotation Xrotation
					JOINT Neck1
					{
						OFFSET -0.05459 1.76913 0.09708
						CHANNELS 3 Zrotation Yrotation Xrotation
						JOINT Head
						{
							OFFSET 0.09461 1.77368 -0.11172
							CHANNELS 3 Zrotation Yrotation Xrotation
							End Site
							{
								OFFSET 0.03812 1.78157 -0.04834
							}
						}
					}
				}
				JOINT LeftShoulder
				{
					OFFSET 0 0 0
					CHANNELS 3 Zrotation Yrotation Xrotation
					JOINT LeftArm
					{
						OFFSET 3.50922 1.24034 -0.28866
						CHANNELS 3 Zrotation Yrotation Xrotation
						JOINT LeftForeArm
						{
							OFFSET 5.40188 -0.00000 0.00000
							CHANNELS 3 Zrotation Yrotation Xrotation
							JOINT LeftHand
							{
								OFFSET 3.68559 -0.00000 0.00000
								CHANNELS 3 Zrotation Yrotation Xrotation
								JOINT LeftFingerBase
								{
									OFFSET 0 0 0
									CHANNELS 3 Zrotation Yrotation Xrotation
									JOINT LeftHandIndex1
									{
										OFFSET 0.61753 -0.00000 0.00000
										CHANNELS 3 Zrotation Yrotation Xrotation
										End Site
										{
											OFFSET 0.49787 -0.00000 0.00000
										}
									}
								}
								JOINT LThumb
								{
									OFFSET 0 0 0
									CHANNELS 3 Zrotation Yrotation Xrotation
									End Site
									{
										OFFSET 0.50547 -0.00000 0.50547
									}
								}
							}
						}
					}
				}
				JOINT RightShoulder
				{
					OFFSET 0 0 0
					CHANNELS 3 Zrotation Yrotation Xrotation
					JOINT RightArm
					{
						OFFSET -2.95373 1.39649 -0.27346
						CHANNELS 3 Zrotation Yrotation Xrotation
						JOINT RightForeArm
						{
							OFFSET -6.10670 -0.00000 -0.00000
							CHANNELS 3 Zrotation Yrotation Xrotation
							JOINT RightHand
							{
								OFFSET -3.63052 -0.00000 0.00000
								CHANNELS 3 Zrotation Yrotation Xrotation
								JOINT RightFingerBase
								{
									OFFSET 0 0 0
									CHANNELS 3 Zrotation Yrotation Xrotation
									JOINT RightHandIndex1
									{
										OFFSET -0.58385 -0.00000 0.00000
										CHANNELS 3 Zrotation Yrotation Xrotation
										End Site
										{
											OFFSET -0.47071 -0.00000 0.00000
										}
									}
								}
								JOINT RThumb
								{
									OFFSET 0 0 0
									CHANNELS 3 Zrotation Yrotation Xrotation
									End Site
									{
										OFFSET -0.47790 -0.00000 0.47790
									}
								}
							}
						}
					}
				}
			}
		}
	}
}
MOTION
Frames: 9
Frame Time: .0083333
-2.8583 18.5794 -3.5294 3.8035 4.7827 -1.5356 0.0000 0.0000 0.0000 -13.7897 -3.6112 -21.4054 6.8390 15.1948 48.2629 0.2253 -2.2369 -8.4687 0.2869 -3.4448 -9.5198 0.0000 0.0000 0.0000 18.3634 12.9903 -3.7660 -2.8388 -10.4294 30.3787 -0.9878 -14.5258 -29.0127 -0.0020 -0.2860 0.7858 2.2506 2.1936 10.5727 1.0714 3.2212 1.4926 -0.6017 1.5651 -4.3025 -4.0224 -1.1494 -13.8197 4.9316 -1.1748 2.7712 2.3017 -0.4101 3.4628 -0.0000 -0.0000 0.0000 -51.5921 2.7413 -9.4208 104.1679 -59.2278 -72.2379 -0.0000 0.0000 -18.3147 32.0187 12.2285 7.5449 -7.1250 0.0000 -0.0000 4.4293 44.2734 -0.0796 -0.0000 -0.0000 0.0000 48.7707 18.7775 8.1805 -144.1723 45.3942 -104.6003 0.0000 -0.0000 -52.5419 -15.5557 6.8444 -1.9001 7.1250 -0.0000 -0.0000 8.2227 -22.8966 4.4199
-2.8031 18.5750 -3.4910 3.7903 4.9679 -1.5821 0.0000 0.0000 0.0000 -14.1650 -3.3988 -19.8240 6.2348 14.6521 45.9171 0.2161 -1.5899 -8.3692 0.2640 -3.3057 -9.1310 0.0000 0.0000 0.0000 18.2445 12.8548 -3.4718 -2.8223 -10.4017 30.2876 -1.0187 -14.4946 -29.1961 -0.0014 -0.2451 0.6733 2.0181 2.1116 10.0926 1.0501 3.0750 1.3532 -0.4570 1.4975 -4.1958 -3.9416 -1.2410 -13.9455 5.1745 -1.3442 3.5956 2.1295 -0.4644 3.3782 -0.0000 0.0000 0.0000 -50.8972 1.8160 -8.5622 105.9571 -59.0157 -73.7736 -0.0000 0.0000 -18.6058 31.8050 11.8748 7.2722 -7.1250 0.0000 -0.0000 4.2437 43.8363 -0.1221 -0.0000 0.0000 0.0000 48.1062 17.2062 9.1859 -142.7739 46.3379 -103.5966 0.0000 -0.0000 -51.5685 -15.4576 7.0580 -1.9460 7.1250 -0.0000 -0.0000 8.2863 -22.6813 4.4960
-2.7440 18.5709 -3.4577 3.5466 5.1702 -1.5935 0.0000 0.0000 0.0000 -14.2770 -3.2963 -18.3465 5.6773 14.1082 43.6725 0.1937 -0.7849 -8.0712 0.2833 -3.4234 -9.4599 0.0000 0.0000 0.0000 18.3512 12.6881 -3.2973 -2.8078 -10.3772 30.2071 -1.0198 -14.5969 -29.3030 -0.0000 -0.0383 0.1052 2.0861 1.9929 9.6687 1.0475 2.9177 1.1386 -0.4650 1.4180 -4.1832 -3.9426 -1.2809 -13.7121 5.3805 -1.4298 3.8506 2.1877 -0.4984 3.4254 0.0000 -0.0000 0.0000 -50.1626 0.8516 -7.8072 107.7222 -58.7794 -75.2850 -0.0000 0.0000 -19.1474 31.5808 11.5362 7.0088 -7.1250 0.0000 -0.0000 4.0490 43.4169 -0.1585 0.0000 -0.0000 0.0000 47.5186 15.6144 10.2629 -141.3137 47.2720 -102.5320 0.0000 -0.0000 -50.6440 -15.3459 7.2122 -1.9732 7.1250 -0.0000 -0.0000 8.3620 -22.5274 4.5677
-2.6832 18.5667 -3.4250 3.2563 5.3265 -1.6593 0.0000 0.0000 0.0000 -14.3426 -3.2346 -16.8222 5.1713 13.5741 41.5574 0.1670 0.1135 -7.7597 0.2971 -3.5050 -9.6880 0.0000 0.0000 0.0000 18.4999 12.4617 -3.0852 -2.7957 -10.3568 30.1399 -1.0351 -14.5936 -29.4039 -0.0001 0.0571 -0.1570 2.1888 1.8465 9.2511 1.0626 2.7249 1.0266 -0.4689 1.3221 -4.0670 -3.9736 -1.2593 -13.5951 5.6343 -1.4241 3.9848 2.2717 -0.4842 3.4506 -0.0000 -0.0000 0.0000 -49.4598 -0.2198 -7.2442 109.6050 -58.4967 -76.8927 -0.0000 0.0000 -19.9644 31.9526 11.2183 6.9186 -7.1250 0.0000 -0.0000 4.4019 43.0940 -0.2075 -0.0000 -0.0000 0.0000 46.9982 14.2563 11.3404 -139.7183 48.2359 -101.3509 0.0000 -0.0000 -49.6578 -15.0555 7.1971 -1.9301 7.1250 -0.0000 -0.0000 8.5742 -22.5540 4.6809
-2.6210 18.5586 -3.3919 2.9882 5.4610 -1.7562 0.0000 0.0000 0.0000 -14.4572 -3.2108 -15.3088 4.7246 13.0667 39.6188 0.2315 0.0922 -9.1214 0.6877 -5.3016 -14.7708 0.0000 0.0000 0.0000 18.6388 12.3008 -2.7925 -2.7816 -10.3328 30.0613 -1.0603 -14.5574 -29.5403 -0.0000 -0.0084 0.0230 2.2164 1.7157 8.8711 1.1059 2.5466 0.9218 -0.4064 1.2346 -3.9686 -3.9336 -1.2480 -13.6098 5.7650 -1.4387 4.3040 2.3051 -0.4817 3.5522 -0.0000 -0.0000 0.0000 -48.7985 -1.3155 -6.7775 111.4423 -58.1894 -78.4567 -0.0000 0.0000 -20.4407 32.0478 11.0616 6.8492 -7.1250 0.0000 -0.0000 4.4935 42.9233 -0.2308 -0.0000 -0.0000 0.0000 46.4737 12.8671 12.4303 -138.0015 49.2103 -100.0606 0.0000 -0.0000 -48.4633 -14.6474 6.8284 -1.7799 7.1250 -0.0000 -0.0000 8.8875 -22.9455 4.7753
-2.5555 18.5530 -3.3610 2.9311 5.6834 -1.8514 0.0000 0.0000 0.0000 -14.8483 -3.1978 -13.8732 4.3399 12.5995 37.8873 0.3120 0.1727 -10.6159 0.5344 -4.6840 -13.0095 0.0000 0.0000 0.0000 18.5296 12.1283 -2.4939 -2.7623 -10.3000 29.9537 -1.0838 -14.5586 -29.7005 -0.0000 -0.0255 0.0701 2.0482 1.5892 8.5425 1.1024 2.3556 0.7854 -0.2851 1.1426 -3.9376 -3.9516 -1.2794 -13.5639 5.9278 -1.5103 4.7338 2.3543 -0.5066 3.6816 -0.0000 -0.0000 0.0000 -48.1978 -2.5103 -6.4530 113.1018 -57.8841 -79.8646 -0.0000 0.0000 -20.3369 31.5587 11.3121 6.8699 -7.1250 0.0000 -0.0000 4.0367 43.1552 -0.1841 -0.0000 -0.0000 0.0000 45.9336 11.4537 13.5294 -136.0874 50.2245 -98.6003 0.0000 -0.0000 -47.2710 -14.8158 6.9417 -1.8310 7.1250 -0.0000 -0.0000 8.7596 -22.8239 4.7297
-2.4883 18.5519 -3.3323 2.9483 5.8242 -1.8983 0.0000 0.0000 0.0000 -15.3058 -3.1334 -12.6288 4.0182 12.1846 36.3880 0.3886 0.2695 -11.8764 0.4946 -4.5090 -12.5133 0.0000 0.0000 0.0000 18.2915 11.9508 -2.2974 -2.7378 -10.2580 29.8164 -1.0708 -14.6436 -29.6941 -0.0003 0.1162 -0.3192 1.8386 1.4919 8.2619 1.0503 2.2004 0.6147 -0.1983 1.0679 -3.9666 -4.0558 -1.3188 -13.4313 6.2075 -1.5851 5.0169 2.4532 -0.5306 3.7548 0.0000 0.0000 0.0000 -47.5601 -3.7437 -6.1788 114.6698 -57.5706 -81.1904 -0.0000 0.0000 -20.2903 31.1173 11.3097 6.7514 -7.1250 0.0000 -0.0000 3.6315 43.0997 -0.1705 0.0000 0.0000 0.0000 45.4825 10.0684 14.6557 -134.0825 51.2101 -97.0483 0.0000 -0.0000 -46.2584 -15.0755 7.1335 -1.9158 7.1250 -0.0000 -0.0000 8.5621 -22.6183 4.6614
-2.4200 18.5503 -3.3062 2.7583 5.9197 -1.9916 0.0000 0.0000 0.0000 -15.4890 -3.0541 -11.5624 3.7501 11.8202 35.0990 0.4511 0.2047 -12.7646 0.5470 -4.7384 -13.1639 0.0000 0.0000 0.0000 18.2717 11.7096 -2.1346 -2.7211 -10.2292 29.7223 -1.0195 -14.8028 -29.5007 -0.0028 0.3421 -0.9400 1.8223 1.3782 8.0638 1.0446 2.0454 0.4603 -0.1744 0.9902 -4.0187 -4.0402 -1.3170 -13.3954 6.4247 -1.6174 5.2791 2.5164 -0.5327 3.8334 0.0000 -0.0000 0.0000 -46.8513 -4.9432 -5.9178 116.2717 -57.2242 -82.5399 -0.0000 0.0000 -20.5763 31.3440 10.9773 6.6154 -7.1250 0.0000 -0.0000 3.8518 42.7431 -0.2149 0.0000 -0.0000 0.0000 45.1020 8.6857 15.8285 -131.9676 52.1704 -95.3887 0.0000 -0.0000 -45.3102 -14.8006 7.5165 -1.9795 7.1250 -0.0000 -0.0000 8.7471 -22.2376 4.8414
-2.3492 18.5464 -3.2830 2.4809 6.0893 -2.1555 0.0000 0.0000 0.0000 -15.5867 -3.0156 -10.5601 3.5196 11.4920 33.9579 0.5121 0.1390 -13.5717 0.5445 -4.7275 -13.1328 0.0000 0.0000 0.0000 18.3621 11.5017 -1.8695 -2.7198 -10.2271 29.7153 -1.0271 -14.7375 -29.4892 -0.0061 0.5036 -1.3838 1.8910 1.2382 7.8415 1.0815 1.8624 0.3884 -0.1496 0.8989 -3.9706 -4.0327 -1.3399 -13.4507 6.6233 -1.6797 5.5756 2.5732 -0.5485 3.9387 0.0000 0.0000 0.0000 -46.1964 -6.2548 -5.7374 117.8731 -56.8506 -83.8836 -0.0000 0.0000 -21.0021 31.7727 10.5053 6.4429 -7.1250 0.0000 -0.0000 4.2567 42.2458 -0.2898 0.0000 0.0000 0.0000 44.6876 7.4606 16.9060 -129.6004 53.1554 -93.5064 0.0000 -0.0000 -44.5714 -14.9277 7.8102 -2.0748 7.1250 -0.0000 -0.0000 8.6439 -21.9325 4.8437
